<svg width="800" height="800" viewBox="0 0 800 800" fill="none" xmlns="http://www.w3.org/2000/svg">
<path d="M393.863 679.464C393.26 679.721 392.731 680.119 392.324 680.626L392.802 680.329C393.125 680.037 393.584 679.694 393.863 679.464Z" fill="#0D0C22"/>
<path d="M416.141 374.577C392.119 384.649 364.855 396.069 329.523 396.069C314.742 396.04 300.032 394.054 285.795 390.166L310.232 635.882C311.097 646.15 315.875 655.726 323.615 662.708C331.356 669.687 341.494 673.56 352.016 673.56C352.016 673.56 386.666 675.32 398.227 675.32C410.67 675.32 447.985 673.56 447.985 673.56C458.505 673.56 468.64 669.682 476.38 662.702C484.119 655.722 488.895 646.15 489.759 635.882L515.933 364.355C504.237 360.443 492.431 357.844 479.125 357.844C456.108 357.836 437.565 365.598 416.141 374.577Z" fill="#FFDD00"/>
<path d="M628.94 247.067L625.26 228.888C621.958 212.578 614.462 197.166 597.366 191.271C591.888 189.385 585.67 188.575 581.468 184.671C577.267 180.768 576.026 174.705 575.054 169.083C573.254 158.765 571.562 148.437 569.718 138.137C568.126 129.28 566.865 119.332 562.718 111.208C557.319 100.299 546.117 93.9192 534.979 89.6983C529.271 87.6116 523.446 85.8464 517.533 84.4113C489.703 77.2209 460.443 74.5774 431.813 73.0706C397.449 71.2135 362.992 71.773 328.71 74.7448C303.193 77.0182 276.317 79.7675 252.069 88.4118C243.207 91.5753 234.074 95.3731 227.335 102.079C219.066 110.318 216.367 123.06 222.404 133.334C226.696 140.63 233.966 145.785 241.677 149.195C251.721 153.589 262.21 156.933 272.971 159.17C302.932 165.656 333.965 168.202 364.574 169.286C398.5 170.627 432.482 169.54 466.247 166.034C474.596 165.135 482.931 164.057 491.251 162.801C501.049 161.329 507.338 148.781 504.451 140.039C500.995 129.589 491.709 125.536 481.21 127.113C479.662 127.351 478.122 127.571 476.575 127.791L475.46 127.95C471.903 128.391 468.345 128.802 464.79 129.184C457.44 129.959 450.075 130.593 442.691 131.087C426.153 132.215 409.571 132.735 392.997 132.761C376.711 132.761 360.417 132.312 344.168 131.263C336.754 130.788 329.358 130.182 321.98 129.448C318.624 129.104 315.277 128.743 311.93 128.338L308.744 127.941L308.052 127.844L304.75 127.377C298.002 126.381 291.253 125.236 284.577 123.853C283.904 123.706 283.301 123.339 282.869 122.812C282.437 122.285 282.202 121.629 282.202 120.954C282.202 120.278 282.437 119.622 282.869 119.095C283.301 118.568 283.904 118.201 284.577 118.054H284.703C290.489 116.847 296.319 115.816 302.167 114.917C304.117 114.618 306.072 114.324 308.034 114.036H308.088C311.75 113.798 315.43 113.155 319.074 112.732C350.778 109.502 382.671 108.401 414.528 109.437C429.995 109.877 445.453 110.767 460.847 112.3C464.158 112.635 467.452 112.988 470.746 113.384C472.005 113.534 473.273 113.71 474.542 113.86L477.096 114.221C484.548 115.308 491.957 116.627 499.33 118.178C510.252 120.504 524.28 121.262 529.139 132.981C530.686 136.7 531.389 140.833 532.244 144.736L533.331 149.715C533.36 149.804 533.381 149.896 533.395 149.988C535.969 161.737 538.544 173.486 541.124 185.235C541.312 186.103 541.316 187 541.137 187.869C540.956 188.739 540.594 189.563 540.075 190.29C539.555 191.017 538.887 191.631 538.115 192.094C537.341 192.557 536.479 192.858 535.582 192.981H535.508L533.934 193.192L532.378 193.394C527.447 194.023 522.511 194.611 517.567 195.157C507.833 196.244 498.083 197.184 488.317 197.977C468.913 199.557 449.469 200.594 429.986 201.087C420.059 201.346 410.135 201.467 400.214 201.449C360.723 201.418 321.267 199.17 282.04 194.716C277.793 194.223 273.547 193.694 269.299 193.157C272.593 193.571 266.906 192.839 265.755 192.681C263.055 192.311 260.356 191.926 257.657 191.527C248.596 190.196 239.59 188.557 230.547 187.12C219.615 185.358 209.16 186.24 199.272 191.527C191.155 195.877 184.586 202.547 180.44 210.648C176.175 219.284 174.907 228.685 172.999 237.965C171.092 247.243 168.123 257.227 169.247 266.753C171.668 287.31 186.342 304.016 207.451 307.754C227.308 311.277 247.274 314.132 267.293 316.565C345.934 325.997 425.383 327.126 504.27 319.931C510.693 319.343 517.109 318.704 523.516 318.01C525.516 317.795 527.541 318.02 529.441 318.671C531.343 319.32 533.069 320.38 534.498 321.769C535.926 323.158 537.02 324.842 537.697 326.697C538.375 328.554 538.621 330.536 538.415 332.497L536.417 351.512C532.394 389.937 528.369 428.359 524.343 466.778C520.145 507.124 515.918 547.468 511.665 587.805C510.466 599.169 509.267 610.528 508.068 621.882C506.914 633.065 506.753 644.599 504.585 655.651C501.165 673.026 489.154 683.699 471.627 687.602C455.569 691.181 439.166 693.061 422.698 693.204C404.443 693.302 386.196 692.509 367.939 692.605C348.451 692.713 324.58 690.95 309.537 676.744C296.319 664.27 294.492 644.732 292.693 627.837C290.294 605.473 287.916 583.114 285.558 560.755L263.775 355.989C263.631 354.658 263.487 353.346 263.352 352.005C262.326 342.409 255.389 333.018 244.457 333.501C235.1 333.906 224.465 341.696 225.563 352.005L245.024 535.008C248.761 570.049 252.489 605.095 256.208 640.149C256.928 646.863 257.603 653.598 258.359 660.311C262.471 697.005 291.083 716.776 326.515 722.344C347.209 725.605 368.407 726.276 389.407 726.609C416.328 727.035 443.518 728.048 469.999 723.27C509.236 716.22 538.677 690.561 542.877 650.76C544.079 639.269 545.278 627.775 546.477 616.278C550.466 578.259 554.449 540.236 558.426 502.21L577.402 321.023C577.699 318.201 578.915 315.544 580.875 313.452C582.831 311.36 585.426 309.938 588.271 309.401C599.49 307.261 610.216 303.602 618.197 295.239C630.9 281.926 633.429 264.567 628.94 247.067ZM206.875 259.351C207.046 259.271 206.731 260.707 206.596 261.377C206.569 260.364 206.623 259.465 206.875 259.351ZM207.964 267.598C208.054 267.537 208.323 267.889 208.602 268.313C208.18 267.924 207.919 267.633 207.964 267.598ZM209.034 268.982C209.628 270.03 209.421 269.625 209.034 268.982ZM211.185 270.69H211.239C211.239 270.752 211.338 270.814 211.374 270.877C211.314 270.808 211.257 270.746 211.185 270.69ZM587.749 268.136C583.718 271.889 577.645 273.634 571.643 274.507C504.341 284.287 436.059 289.24 368.02 287.054C319.326 285.424 271.144 280.128 222.936 273.459C218.212 272.806 213.092 271.96 209.844 268.55C203.726 262.117 206.731 249.164 208.323 241.392C209.781 234.272 212.57 224.782 221.217 223.769C234.713 222.218 250.387 227.795 263.739 229.778C279.815 232.181 295.95 234.105 312.146 235.55C381.264 241.718 451.544 240.758 520.357 231.735C532.9 230.084 545.397 228.166 557.85 225.98C568.944 224.033 581.245 220.376 587.947 231.629C592.544 239.295 593.156 249.552 592.446 258.214C592.227 261.988 590.552 265.537 587.749 268.136Z" fill="#0D0C22"/>
</svg>
