<svg width="24" height="34" viewBox="0 0 24 34" fill="none" xmlns="http://www.w3.org/2000/svg">
<path d="M11.6812 31.5325C11.6499 31.5458 11.6224 31.5665 11.6013 31.5928L11.6261 31.5774C11.6429 31.5622 11.6667 31.5444 11.6812 31.5325Z" fill="#0D0C22"/>
<path d="M12.8385 15.7063C11.5906 16.2291 10.1743 16.8219 8.33883 16.8219C7.571 16.8204 6.80687 16.7173 6.06726 16.5155L7.33674 29.2702C7.38167 29.8032 7.62984 30.3003 8.03196 30.6627C8.43407 31.025 8.96074 31.226 9.50734 31.226C9.50734 31.226 11.3073 31.3174 11.9079 31.3174C12.5543 31.3174 14.4927 31.226 14.4927 31.226C15.0392 31.226 15.5657 31.0247 15.9678 30.6624C16.3698 30.3001 16.6179 29.8032 16.6628 29.2702L18.0225 15.1757C17.4149 14.9726 16.8016 14.8377 16.1104 14.8377C14.9147 14.8373 13.9514 15.2402 12.8385 15.7063Z" fill="#FFDD00"/>
<path d="M23.893 9.08745L23.7018 8.14382C23.5303 7.29717 23.1409 6.49718 22.2528 6.19118C21.9682 6.09327 21.6452 6.05122 21.4269 5.84857C21.2087 5.64596 21.1442 5.33126 21.0937 5.03943C21.0002 4.50381 20.9123 3.96773 20.8165 3.43304C20.7338 2.97333 20.6683 2.45693 20.4529 2.03521C20.1724 1.46895 19.5905 1.13779 19.0119 0.918689C18.7154 0.810373 18.4128 0.718744 18.1056 0.64425C16.6599 0.271008 15.1399 0.133787 13.6526 0.0555714C11.8675 -0.0408257 10.0775 -0.0117826 8.29662 0.142478C6.97108 0.260487 5.57493 0.403198 4.31529 0.85191C3.85491 1.01612 3.38048 1.21326 3.03041 1.56134C2.60085 1.98901 2.46063 2.65042 2.77425 3.18374C2.99722 3.56247 3.37488 3.83006 3.77545 4.00707C4.2972 4.23516 4.84209 4.40872 5.40108 4.52486C6.95752 4.86151 8.5696 4.99368 10.1597 5.04996C11.9221 5.11956 13.6874 5.06315 15.4414 4.88116C15.8751 4.8345 16.3081 4.77855 16.7403 4.71331C17.2493 4.63691 17.576 3.98557 17.426 3.53182C17.2465 2.98936 16.7641 2.77896 16.2187 2.86083C16.1383 2.87317 16.0583 2.8846 15.9779 2.89603L15.92 2.90427C15.7352 2.92716 15.5504 2.94848 15.3657 2.96831C14.9839 3.00856 14.6013 3.04149 14.2177 3.06712C13.3586 3.12565 12.4972 3.15264 11.6362 3.15402C10.7902 3.15402 9.94376 3.13068 9.09963 3.07626C8.71449 3.05157 8.33028 3.02015 7.94701 2.98203C7.77267 2.96419 7.59879 2.94545 7.42494 2.92439L7.25945 2.90382L7.22349 2.89879L7.05195 2.87455C6.70139 2.82285 6.35083 2.7634 6.00402 2.69158C5.96903 2.68397 5.93771 2.66494 5.91528 2.63757C5.89284 2.61021 5.88061 2.57618 5.88061 2.5411C5.88061 2.50602 5.89284 2.47198 5.91528 2.44462C5.93771 2.41726 5.96903 2.39821 6.00402 2.39061H6.01057C6.31112 2.32795 6.61397 2.27443 6.91778 2.22777C7.01908 2.21222 7.12064 2.19698 7.22254 2.18204H7.22534C7.41557 2.16968 7.60675 2.13629 7.79603 2.11434C9.44301 1.94669 11.0998 1.88954 12.7547 1.94327C13.5582 1.96614 14.3612 2.01234 15.1609 2.09193C15.3329 2.10931 15.504 2.12761 15.6751 2.14819C15.7405 2.15597 15.8064 2.16511 15.8723 2.17289L16.005 2.19164C16.3921 2.24805 16.777 2.31651 17.16 2.39702C17.7274 2.51777 18.4561 2.55711 18.7085 3.16545C18.7889 3.35847 18.8254 3.573 18.8698 3.77561L18.9263 4.03406C18.9278 4.03868 18.9289 4.04344 18.9296 4.04823C19.0633 4.6581 19.1971 5.26797 19.3311 5.87784C19.3409 5.9229 19.3411 5.96945 19.3318 6.01459C19.3224 6.05975 19.3036 6.1025 19.2766 6.14024C19.2496 6.17797 19.2149 6.20984 19.1748 6.23387C19.1346 6.2579 19.0898 6.27356 19.0432 6.27991H19.0394L18.9576 6.29089L18.8768 6.30139C18.6206 6.33404 18.3642 6.36453 18.1074 6.39289C17.6017 6.4493 17.0952 6.49808 16.5879 6.53926C15.5799 6.62127 14.5698 6.6751 13.5577 6.70072C13.042 6.71412 12.5265 6.7204 12.0111 6.71947C9.95966 6.7179 7.90999 6.6012 5.87222 6.37C5.65159 6.3444 5.43099 6.31694 5.21036 6.28906C5.38144 6.31056 5.08603 6.27258 5.02621 6.26436C4.88599 6.24514 4.74577 6.22518 4.60554 6.20444C4.13486 6.13535 3.66701 6.05029 3.19726 5.97572C2.62937 5.88425 2.08624 5.93 1.57257 6.20444C1.15092 6.43024 0.80965 6.77649 0.594293 7.19701C0.372742 7.64525 0.306839 8.13329 0.20775 8.61496C0.10866 9.09659 -0.0455833 9.61483 0.012842 10.1093C0.138573 11.1764 0.900909 12.0436 1.99744 12.2376C3.029 12.4205 4.06616 12.5687 5.10613 12.695C9.19139 13.1846 13.3186 13.2432 17.4166 12.8697C17.7503 12.8392 18.0836 12.806 18.4164 12.77C18.5203 12.7588 18.6255 12.7705 18.7242 12.8043C18.823 12.838 18.9127 12.893 18.9869 12.9651C19.0611 13.0372 19.1179 13.1246 19.1531 13.2209C19.1883 13.3173 19.2011 13.4202 19.1904 13.522L19.0866 14.509C18.8776 16.5036 18.6685 18.498 18.4594 20.4923C18.2413 22.5866 18.0217 24.6808 17.8008 26.7746C17.7385 27.3645 17.6762 27.9541 17.6139 28.5435C17.554 29.124 17.5456 29.7227 17.433 30.2964C17.2553 31.1983 16.6314 31.7523 15.7209 31.9549C14.8867 32.1407 14.0346 32.2383 13.1791 32.2457C12.2308 32.2508 11.2829 32.2096 10.3345 32.2146C9.32211 32.2202 8.0821 32.1287 7.30061 31.3913C6.61397 30.7438 6.51909 29.7296 6.42561 28.8526C6.30098 27.6917 6.17744 26.5311 6.05496 25.3705L5.36789 18.917L4.92339 14.7414C4.9159 14.6723 4.90843 14.6042 4.90142 14.5346C4.84812 14.0365 4.48776 13.549 3.91986 13.5741C3.43378 13.5951 2.88131 13.9995 2.93832 14.5346L3.26783 17.6304L3.9493 24.034C4.14345 25.8529 4.3371 27.6721 4.5303 29.4917C4.5677 29.8402 4.60274 30.1898 4.642 30.5383C4.85562 32.443 6.34195 33.4693 8.18258 33.7583C9.25762 33.9276 10.3588 33.9624 11.4497 33.9797C12.8482 34.0018 14.2607 34.0544 15.6363 33.8064C17.6746 33.4404 19.204 32.1085 19.4222 30.0425C19.4846 29.446 19.5469 28.8494 19.6092 28.2526C19.8164 26.2791 20.0233 24.3054 20.2299 22.3315L20.9058 15.8822L21.2157 12.9264C21.2311 12.7799 21.2943 12.642 21.3961 12.5334C21.4977 12.4248 21.6325 12.351 21.7803 12.3231C22.3631 12.212 22.9203 12.0221 23.3349 11.588C23.9948 10.8969 24.1262 9.99585 23.893 9.08745ZM1.96752 9.72507C1.9764 9.72095 1.96005 9.79549 1.95303 9.83026C1.95163 9.77765 1.95444 9.731 1.96752 9.72507ZM2.02408 10.1532C2.02876 10.15 2.04277 10.1683 2.05726 10.1903C2.0353 10.1701 2.02128 10.155 2.02361 10.1532H2.02408ZM2.0797 10.225C2.11055 10.2794 2.0998 10.2584 2.0797 10.225ZM2.19141 10.3137H2.19421C2.19421 10.3169 2.19936 10.3201 2.20123 10.3234C2.19813 10.3198 2.19468 10.3166 2.19094 10.3137H2.19141ZM21.7532 10.1811C21.5438 10.3759 21.2283 10.4665 20.9165 10.5118C17.4203 11.0195 13.8732 11.2766 10.3387 11.1631C7.80913 11.0785 5.30619 10.8036 2.80185 10.4574C2.55645 10.4235 2.2905 10.3796 2.12177 10.2026C1.80393 9.86867 1.96005 9.1963 2.04277 8.79288C2.1185 8.42329 2.26339 7.93068 2.71257 7.87807C3.41367 7.79758 4.22788 8.08709 4.92152 8.19002C5.75661 8.31472 6.59482 8.4146 7.43613 8.48962C11.0267 8.80981 14.6776 8.75994 18.2523 8.29157C18.9039 8.20587 19.5531 8.10631 20.2 7.99288C20.7763 7.89179 21.4153 7.70198 21.7635 8.28607C22.0023 8.68402 22.0341 9.21643 21.9972 9.66606C21.9858 9.86195 21.8983 10.0462 21.7527 10.1811H21.7532Z" fill="#0D0C22"/>
</svg>
