<svg class="svg-icon" style="width: 1em; height: 1em;vertical-align: middle;fill: currentColor;overflow: hidden;" viewBox="0 0 1024 1024" version="1.1" xmlns="http://www.w3.org/2000/svg"><path d="M774.4 73.92C608-13.76 498.24 98.24 304.96 120.96a1718.4 1718.4 0 0 1-5.44 493.12 1141.12 1141.12 0 0 1 317.44 341.76 64 64 0 0 0 106.56 0c28.8-35.84 17.6-58.88-6.08-192a111.68 111.68 0 0 1 22.72-91.84c67.52-83.52 163.52 8 230.4-86.4S913.6 147.84 774.4 73.92zM32 62.08v576h167.68a1716.8 1716.8 0 0 0 0-576z" fill="#231F20" /></svg>