<svg class="svg-icon" style="width: 1em; height: 1em;vertical-align: middle;fill: currentColor;overflow: hidden;" viewBox="0 0 1024 1024" version="1.1" xmlns="http://www.w3.org/2000/svg"><path d="M512 932.16c-94.08 0-480-241.6-480-537.6 0-160 130.88-302.4 280.32-302.4A279.36 279.36 0 0 1 512 175.36a279.36 279.36 0 0 1 199.68-83.52c149.44 0 280.32 141.44 280.32 302.4 0 296.32-385.92 537.92-480 537.92zM312.32 219.84C233.92 219.84 160 304.64 160 394.56c0 207.04 288 389.12 352 408.64 64-19.52 352-201.6 352-408.64 0-89.6-73.92-174.4-152.32-174.4a151.68 151.68 0 0 0-140.8 94.08 64 64 0 0 1-118.4 0 152 152 0 0 0-140.16-94.4z" fill="#231F20" /></svg>