<svg fill="none" height="24" viewBox="0 0 24 24" width="24" xmlns="http://www.w3.org/2000/svg"><path d="m22 21.2488h-1v-11.27005c0-.62-.28-1.2-.77-1.58l-1.23-.96-.02-2.45c0-.55-.45-.99-1-.99h-3.41l-1.34-1.04c-.72-.57-1.74-.57-2.46 0l-7 5.44c-.49.38-.77.96-.77 1.57l-.05 11.28005h-.95c-.41 0-.75.34-.75.75s.34.75.75.75h20c.41 0 .75-.34.75-.75s-.34-.75-.75-.75zm-15.5-8.5001v-1.5c0-.55.45-1 1-1h2c.55 0 1 .45 1 1v1.5c0 .55-.45 1-1 1h-2c-.55 0-1-.45-1-1zm8 8.5001h-5v-2.7501c0-.83.67-1.5 1.5-1.5h2c.83 0 1.5.67 1.5 1.5zm3-8.5001c0 .55-.45 1-1 1h-2c-.55 0-1-.45-1-1v-1.5c0-.55.45-1 1-1h2c.55 0 1 .45 1 1z" fill="#292d32"/></svg>