<svg class="svg-icon" style="width: 1em; height: 1em;vertical-align: middle;fill: currentColor;overflow: hidden;" viewBox="0 0 1024 1024" version="1.1" xmlns="http://www.w3.org/2000/svg"><path d="M970.56 434.56c-66.88-94.4-162.88-2.56-230.4-86.4a111.68 111.68 0 0 1-22.72-89.28c23.68-134.08 34.88-157.12 6.08-192a64 64 0 0 0-106.56 0 1141.12 1141.12 0 0 1-317.44 340.16 1718.4 1718.4 0 0 1 5.44 493.12c192 22.72 303.68 134.72 469.44 47.04 139.2-73.92 259.84-422.4 196.16-512.64zM199.68 960a1716.8 1716.8 0 0 0 0-576H32v576z" fill="#231F20" /></svg>