<svg xmlns="http://www.w3.org/2000/svg" viewBox="0 0 24 30" x="0px" y="0px"><g><path d="M12,23A11,11,0,1,1,23,12,11.01245,11.01245,0,0,1,12,23ZM12,3a9,9,0,1,0,9,9A9.01016,9.01016,0,0,0,12,3Z"/><path d="M10.00049,16a.9943.9943,0,0,1-.75293-.3418l-3-3.42871a.9997.9997,0,1,1,1.50488-1.3164l2.34815,2.68359,6.24853-5.35547a.9997.9997,0,1,1,1.30176,1.51758l-7,6A.99373.99373,0,0,1,10.00049,16Z"/></g><text x="0" y="39" fill="#000000" font-size="5px" font-weight="bold" font-family="'Helvetica Neue', Helvetica, Arial-Unicode, Arial, Sans-serif">Created by Komardews</text><text x="0" y="44" fill="#000000" font-size="5px" font-weight="bold" font-family="'Helvetica Neue', Helvetica, Arial-Unicode, Arial, Sans-serif">from the Noun Project</text></svg>