<svg width="800" height="800" viewBox="0 0 800 800" fill="none" xmlns="http://www.w3.org/2000/svg">
<path d="M492.857 514.286C528.361 514.286 557.143 543.067 557.143 578.571V621.485L556.918 624.584C548.039 685.333 493.472 714.544 401.908 714.544C310.675 714.544 255.237 685.667 243.27 625.617L242.857 621.429V578.571C242.857 543.067 271.639 514.286 307.143 514.286H492.857ZM492.857 557.143H307.143C295.308 557.143 285.714 566.737 285.714 578.571V619.154C293.708 653.451 330.018 671.687 401.908 671.687C473.796 671.687 508.475 653.649 514.286 619.804V578.571C514.286 566.737 504.692 557.143 492.857 557.143ZM521.244 342.826L678.571 342.857C714.075 342.857 742.857 371.639 742.857 407.143V450.057L742.632 453.155C733.753 513.904 679.186 543.115 587.623 543.115L578.626 543.019C570.197 522.631 554.717 505.938 535.239 495.928C549.948 498.812 567.374 500.258 587.623 500.258C659.51 500.258 694.19 482.22 700 448.376V407.143C700 395.308 690.406 385.714 678.571 385.714H528.571C528.571 370.675 525.989 356.24 521.244 342.826ZM121.429 342.857L278.756 342.826C274.801 354.004 272.349 365.892 271.642 378.247L271.429 385.714H121.429C109.594 385.714 100 395.308 100 407.143V447.725C107.994 482.022 144.304 500.258 216.194 500.258C233.967 500.258 249.466 499.156 262.817 496.984C244.224 507.081 229.485 523.355 221.324 543.045L216.194 543.115C124.96 543.115 69.5229 514.238 57.5561 454.188L57.1429 450V407.143C57.1429 371.639 85.9245 342.857 121.429 342.857ZM400 285.714C455.228 285.714 500 330.486 500 385.714C500 440.943 455.228 485.714 400 485.714C344.772 485.714 300 440.943 300 385.714C300 330.486 344.772 285.714 400 285.714ZM400 328.571C368.441 328.571 342.857 354.155 342.857 385.714C342.857 417.273 368.441 442.857 400 442.857C431.559 442.857 457.143 417.273 457.143 385.714C457.143 354.155 431.559 328.571 400 328.571ZM585.714 114.286C640.943 114.286 685.714 159.057 685.714 214.286C685.714 269.514 640.943 314.286 585.714 314.286C530.486 314.286 485.714 269.514 485.714 214.286C485.714 159.057 530.486 114.286 585.714 114.286ZM214.286 114.286C269.514 114.286 314.286 159.057 314.286 214.286C314.286 269.514 269.514 314.286 214.286 314.286C159.057 314.286 114.286 269.514 114.286 214.286C114.286 159.057 159.057 114.286 214.286 114.286ZM585.714 157.143C554.155 157.143 528.571 182.727 528.571 214.286C528.571 245.845 554.155 271.429 585.714 271.429C617.273 271.429 642.857 245.845 642.857 214.286C642.857 182.727 617.273 157.143 585.714 157.143ZM214.286 157.143C182.727 157.143 157.143 182.727 157.143 214.286C157.143 245.845 182.727 271.429 214.286 271.429C245.845 271.429 271.429 245.845 271.429 214.286C271.429 182.727 245.845 157.143 214.286 157.143Z" fill="#416599"/>
</svg>
