<svg width="800" height="800" viewBox="0 0 800 800" fill="none" xmlns="http://www.w3.org/2000/svg">
<path d="M507.143 514.286C534.757 514.286 557.143 536.671 557.143 564.286V621.485L556.918 624.584C548.039 685.333 493.472 714.544 401.908 714.544C310.675 714.544 255.237 685.667 243.27 625.617L242.857 621.429V564.286C242.857 536.671 265.243 514.286 292.857 514.286H507.143ZM521.255 342.855L692.857 342.857C720.471 342.857 742.857 365.243 742.857 392.857V450.057L742.632 453.155C733.753 513.904 679.186 543.115 587.622 543.115L582.816 543.07C574 511.558 546.03 488.046 512.251 485.878L507.143 485.714L480.793 485.735C509.937 462.165 528.571 426.116 528.571 385.714C528.571 370.686 525.993 356.26 521.255 342.855ZM107.143 342.857L278.745 342.855C274.007 356.26 271.429 370.686 271.429 385.714C271.429 423.739 287.935 457.909 314.174 481.448L319.207 485.735L292.857 485.714C256.794 485.714 226.406 510.01 217.168 543.127L216.194 543.115C124.96 543.115 69.5229 514.238 57.556 454.188L57.1428 450V392.857C57.1428 365.243 79.5286 342.857 107.143 342.857ZM400 285.714C455.228 285.714 500 330.486 500 385.714C500 440.943 455.228 485.714 400 485.714C344.771 485.714 300 440.943 300 385.714C300 330.486 344.771 285.714 400 285.714ZM585.714 114.286C640.943 114.286 685.714 159.057 685.714 214.286C685.714 269.514 640.943 314.286 585.714 314.286C530.486 314.286 485.714 269.514 485.714 214.286C485.714 159.057 530.486 114.286 585.714 114.286ZM214.286 114.286C269.514 114.286 314.286 159.057 314.286 214.286C314.286 269.514 269.514 314.286 214.286 314.286C159.057 314.286 114.286 269.514 114.286 214.286C114.286 159.057 159.057 114.286 214.286 114.286Z" fill="#416599"/>
</svg>
