<svg width="800" height="800" viewBox="0 0 800 800" fill="none" xmlns="http://www.w3.org/2000/svg">
<path d="M733.333 557.997V155.665C733.333 115.665 700.667 85.998 661 89.3313H659C589 95.3313 482.667 130.998 423.333 168.331L417.667 171.998C408 177.998 392 177.998 382.333 171.998L374 166.998C314.667 129.998 208.667 94.6647 138.667 88.998C99 85.6647 66.6666 115.665 66.6666 155.331V557.997C66.6666 589.997 92.6666 619.997 124.667 623.997L134.333 625.33C206.667 634.997 318.333 671.663 382.333 706.663L383.667 707.33C392.667 712.33 407 712.33 415.667 707.33C479.667 671.997 591.667 634.997 664.333 625.33L675.333 623.997C707.333 619.997 733.333 589.997 733.333 557.997Z" stroke="#416599" stroke-width="50" stroke-linecap="round" stroke-linejoin="round"/>
<path d="M400 183V683" stroke="#416599" stroke-width="50" stroke-linecap="round" stroke-linejoin="round"/>
<path d="M258.333 283H183.333" stroke="#416599" stroke-width="50" stroke-linecap="round" stroke-linejoin="round"/>
<path d="M283.333 383H183.333" stroke="#416599" stroke-width="50" stroke-linecap="round" stroke-linejoin="round"/>
</svg>
