<svg width="800" height="800" viewBox="0 0 800 800" fill="none" xmlns="http://www.w3.org/2000/svg">
<path d="M733.333 161.656V557.99C733.333 590.323 707 619.99 674.667 623.99L664.333 625.323C609.667 632.657 532.667 655.323 470.667 681.323C449 690.323 425 673.99 425 650.323V186.656C425 174.323 432 162.99 443 156.99C504 123.99 596.333 94.6563 659 89.323H661C701 89.323 733.333 121.656 733.333 161.656Z" fill="#416599"/>
<path d="M356.943 156.99C295.943 123.99 203.609 94.6563 140.943 89.323H138.609C98.6093 89.323 66.276 121.656 66.276 161.656V557.99C66.276 590.323 92.6093 619.99 124.943 623.99L135.276 625.323C189.943 632.657 266.943 655.323 328.943 681.323C350.61 690.323 374.61 673.99 374.61 650.323V186.656C374.61 173.99 367.943 162.99 356.943 156.99ZM166.609 257.99H241.609C255.276 257.99 266.609 269.323 266.609 282.99C266.609 296.99 255.276 307.99 241.609 307.99H166.609C152.943 307.99 141.609 296.99 141.609 282.99C141.609 269.323 152.943 257.99 166.609 257.99ZM266.609 407.99H166.609C152.943 407.99 141.609 396.99 141.609 382.99C141.609 369.323 152.943 357.99 166.609 357.99H266.609C280.276 357.99 291.609 369.323 291.609 382.99C291.609 396.99 280.276 407.99 266.609 407.99Z" fill="#416599"/>
</svg>
