<svg width="800" height="800" viewBox="0 0 800 800" fill="none" xmlns="http://www.w3.org/2000/svg">
<path d="M722.003 348L689.337 487.333C661.337 607.667 606.003 656.333 502.003 646.333C485.337 645 467.337 642 448.003 637.333L392.003 624C253.002 591 210.002 522.333 242.669 383L275.335 243.334C282.002 215 290.002 190.334 300.002 170C339.003 89.3337 405.337 67.667 516.67 94.0003L572.337 107C712.003 139.667 754.67 208.667 722.003 348Z" stroke="#416599" stroke-width="50" stroke-linecap="round" stroke-linejoin="round"/>
<path d="M502 646.333C481.333 660.333 455.333 672 423.667 682.333L371 699.667C238.666 742.333 168.999 706.667 125.999 574.333L83.3323 442.667C40.6656 310.333 75.9989 240.333 208.332 197.666L260.999 180.333C274.666 175.999 287.666 172.333 299.999 169.999C289.999 190.333 281.999 214.999 275.332 243.333L242.666 383C209.999 522.333 252.999 591 392 624L448 637.333C467.333 642 485.333 645 502 646.333Z" stroke="#416599" stroke-width="50" stroke-linecap="round" stroke-linejoin="round"/>
<path d="M421.333 284.334L583 325.334" stroke="#416599" stroke-width="50" stroke-linecap="round" stroke-linejoin="round"/>
<path d="M388.667 413.333L485.333 438" stroke="#416599" stroke-width="50" stroke-linecap="round" stroke-linejoin="round"/>
</svg>
