<svg width="96" height="96" viewBox="0 0 96 96" fill="none" xmlns="http://www.w3.org/2000/svg">
<path d="M81.7957 12.3197C82.8293 10.3452 81.3642 8.0087 79.1386 8.12672C26.1659 10.9359 16.7139 59.7507 12.5765 84.5269C12.2711 86.3554 13.6876 88 15.5414 88H17.5322C18.9624 88 20.1831 86.987 20.5311 85.5998C23.4945 73.7857 29.983 67.2535 40 66C54.8576 64.1428 66.2661 51.938 71.0223 40.5958C71.6563 39.084 71.0537 37.3691 69.6897 36.4598V36.4598C67.7809 35.1873 67.5135 32.4865 69.1356 30.8644L70 30C73.4882 26.5118 76.9886 21.5026 81.7957 12.3197Z" fill="#2D4368"/>
</svg>
