<svg width="96" height="96" viewBox="0 0 96 96" fill="none" xmlns="http://www.w3.org/2000/svg">
<path d="M27.76 56.144V56.144C26.9099 58.4207 29.6852 60.5878 31.9651 59.7465C34.1517 58.9395 36.5001 58.3742 39.008 58.06C48.2734 56.9023 56.5872 51.1736 61.3714 43.7528C62.0908 42.637 61.8679 41.1843 60.9288 40.2458V40.2458C58.5864 37.9051 58.5844 34.1089 60.9243 31.7657L62.34 30.348L66.34 26.344C67.3518 25.3322 68.4398 23.8164 69.582 21.8082C70.758 19.7403 68.9449 17.3826 66.6351 17.9518C47.4342 22.683 35.2983 35.883 27.76 56.144ZM70.4691 33.5324C69.1055 34.8974 69.1066 37.1095 70.4716 38.4731V38.4731C71.4082 39.4088 71.7499 40.7986 71.2493 42.0243C66.6366 53.319 55.0995 64.1126 40 66C29.983 67.2535 23.4945 73.7857 20.5311 85.5998C20.1831 86.987 18.9624 88 17.5322 88H15.5414C13.6876 88 12.2711 86.3554 12.5765 84.5269C16.7313 59.6463 26.2457 10.5238 79.8109 8.09365C81.8569 8.00083 83.3304 10.0097 82.6352 11.9361C79.0917 21.7555 75.5534 28.4395 72.012 31.988L70.4691 33.5324Z" fill="#2D4368"/>
</svg>
