<svg width="800" height="800" viewBox="0 0 800 800" fill="none" xmlns="http://www.w3.org/2000/svg">
<path d="M539.667 66.6667H260.333C139 66.6667 66.6667 139 66.6667 260.333V539.667C66.6667 661 139 733.333 260.333 733.333H539.667C661 733.333 733.333 661 733.333 539.667V260.333C733.333 139 661 66.6667 539.667 66.6667ZM332.333 496.667L257.333 571.667C252.333 576.667 246 579 239.667 579C233.333 579 226.667 576.667 222 571.667L197 546.667C187 537 187 521 197 511.333C206.667 501.667 222.333 501.667 232.333 511.333L239.667 518.667L297 461.333C306.667 451.667 322.333 451.667 332.333 461.333C342 471 342 487 332.333 496.667ZM332.333 263.333L257.333 338.333C252.333 343.333 246 345.667 239.667 345.667C233.333 345.667 226.667 343.333 222 338.333L197 313.333C187 303.667 187 287.667 197 278C206.667 268.333 222.333 268.333 232.333 278L239.667 285.333L297 228C306.667 218.333 322.333 218.333 332.333 228C342 237.667 342 253.667 332.333 263.333ZM585.333 554H410.333C396.667 554 385.333 542.667 385.333 529C385.333 515.333 396.667 504 410.333 504H585.333C599.333 504 610.333 515.333 610.333 529C610.333 542.667 599.333 554 585.333 554ZM585.333 320.667H410.333C396.667 320.667 385.333 309.333 385.333 295.667C385.333 282 396.667 270.667 410.333 270.667H585.333C599.333 270.667 610.333 282 610.333 295.667C610.333 309.333 599.333 320.667 585.333 320.667Z" fill="#416599"/>
</svg>
